<svg width="48" height="64" viewBox="0 0 48 64" fill="none" xmlns="http://www.w3.org/2000/svg">
<ellipse cx="3.45283" cy="2.87736" rx="3.45283" ry="2.87736" transform="matrix(-1 0 0 1 14.6602 28.4717)" fill="#B0C5F5"/>
<path d="M22.5526 24.163C33.1166 18.7929 38.1252 14.0513 45.1604 2C32.6615 4.96341 26.3654 8.72756 17.1061 21.2632C7.73751 22.4567 4.05708 24.252 2 30.6876C2.24045 38.17 5.66049 39.724 12.7901 41.6655L6.00775 63H12.7901L20.7028 42.7012C27.738 35.5812 35.3979 38.5586 37.967 43.7368C40.5361 48.9151 36.6312 59.5659 29.8487 63H18.1338L20.7028 58.1324H25.841C22.3883 52.6156 22.3352 50.1269 25.841 46.8438" stroke="#B0C5F5" stroke-width="2"/>
</svg>
